<svg width="621" height="126" viewBox="0 0 621 126" fill="none" xmlns="http://www.w3.org/2000/svg">
<rect x="83.8334" y="83.8333" width="41.6667" height="41.6667" fill="#823CFA"/>
<rect x="0.5" y="0.5" width="41.6667" height="41.6667" fill="#E648F5"/>
<rect x="42.1666" y="0.5" width="41.6667" height="41.6667" fill="#A335DE"/>
<rect x="42.1667" y="42.1667" width="41.6667" height="41.6667" fill="#DE35A4"/>
<rect x="0.5" y="42.1667" width="41.6667" height="41.6667" fill="#FA3C5A"/>
<path d="M170.025 90.025C163.675 90.025 158.425 88.55 154.275 85.6C150.175 82.6 147.95 78.225 147.6 72.475H165.3C165.55 75.525 166.9 77.05 169.35 77.05C170.25 77.05 171 76.85 171.6 76.45C172.25 76 172.575 75.325 172.575 74.425C172.575 73.175 171.9 72.175 170.55 71.425C169.2 70.625 167.1 69.725 164.25 68.725C160.85 67.525 158.025 66.35 155.775 65.2C153.575 64.05 151.675 62.375 150.075 60.175C148.475 57.975 147.7 55.15 147.75 51.7C147.75 48.25 148.625 45.325 150.375 42.925C152.175 40.475 154.6 38.625 157.65 37.375C160.75 36.125 164.225 35.5 168.075 35.5C174.575 35.5 179.725 37 183.525 40C187.375 43 189.4 47.225 189.6 52.675H171.675C171.625 51.175 171.25 50.1 170.55 49.45C169.85 48.8 169 48.475 168 48.475C167.3 48.475 166.725 48.725 166.275 49.225C165.825 49.675 165.6 50.325 165.6 51.175C165.6 52.375 166.25 53.375 167.55 54.175C168.9 54.925 171.025 55.85 173.925 56.95C177.275 58.2 180.025 59.4 182.175 60.55C184.375 61.7 186.275 63.3 187.875 65.35C189.475 67.4 190.275 69.975 190.275 73.075C190.275 76.325 189.475 79.25 187.875 81.85C186.275 84.4 183.95 86.4 180.9 87.85C177.85 89.3 174.225 90.025 170.025 90.025ZM212.775 52.975C213.825 51.025 215.325 49.5 217.275 48.4C219.275 47.25 221.65 46.675 224.4 46.675C227.7 46.675 230.675 47.55 233.325 49.3C235.975 51 238.05 53.5 239.55 56.8C241.1 60.05 241.875 63.9 241.875 68.35C241.875 72.8 241.1 76.675 239.55 79.975C238.05 83.225 235.975 85.725 233.325 87.475C230.675 89.175 227.7 90.025 224.4 90.025C221.65 90.025 219.275 89.475 217.275 88.375C215.325 87.225 213.825 85.675 212.775 83.725V109.75H196.125V47.2H212.775V52.975ZM225 68.35C225 66.1 224.425 64.35 223.275 63.1C222.125 61.85 220.65 61.225 218.85 61.225C217.05 61.225 215.575 61.85 214.425 63.1C213.275 64.35 212.7 66.1 212.7 68.35C212.7 70.6 213.275 72.35 214.425 73.6C215.575 74.85 217.05 75.475 218.85 75.475C220.65 75.475 222.125 74.85 223.275 73.6C224.425 72.35 225 70.6 225 68.35ZM244.852 68.35C244.852 63.9 245.602 60.05 247.102 56.8C248.652 53.5 250.752 51 253.402 49.3C256.052 47.55 259.027 46.675 262.327 46.675C265.077 46.675 267.452 47.25 269.452 48.4C271.452 49.5 272.977 51.025 274.027 52.975V47.2H290.602V89.5H274.027V83.725C272.977 85.675 271.452 87.225 269.452 88.375C267.452 89.475 265.077 90.025 262.327 90.025C259.027 90.025 256.052 89.175 253.402 87.475C250.752 85.725 248.652 83.225 247.102 79.975C245.602 76.675 244.852 72.8 244.852 68.35ZM274.027 68.35C274.027 66.1 273.452 64.35 272.302 63.1C271.152 61.85 269.677 61.225 267.877 61.225C266.077 61.225 264.602 61.85 263.452 63.1C262.302 64.35 261.727 66.1 261.727 68.35C261.727 70.6 262.302 72.35 263.452 73.6C264.602 74.85 266.077 75.475 267.877 75.475C269.677 75.475 271.152 74.85 272.302 73.6C273.452 72.35 274.027 70.6 274.027 68.35ZM362.278 47.2L352.228 89.5H333.478L328.378 65.65L322.978 89.5H304.228L294.253 47.2H310.753L314.278 72.925L319.753 47.2H337.528L343.303 73.225L346.903 47.2H362.278ZM395.452 46.9C400.302 46.9 404.077 48.525 406.777 51.775C409.527 55.025 410.902 59.425 410.902 64.975V89.5H394.327V67.075C394.327 65.075 393.777 63.5 392.677 62.35C391.627 61.15 390.202 60.55 388.402 60.55C386.552 60.55 385.102 61.15 384.052 62.35C383.002 63.5 382.477 65.075 382.477 67.075V89.5H365.827V47.2H382.477V53.65C383.777 51.65 385.502 50.025 387.652 48.775C389.852 47.525 392.452 46.9 395.452 46.9ZM461.547 54.625C461.547 57.975 460.772 61.025 459.222 63.775C457.672 66.475 455.372 68.625 452.322 70.225C449.322 71.825 445.672 72.625 441.372 72.625H434.772V89.5H418.122V36.4H441.372C447.872 36.4 452.847 38.05 456.297 41.35C459.797 44.65 461.547 49.075 461.547 54.625ZM439.497 59.5C442.947 59.5 444.672 57.875 444.672 54.625C444.672 51.375 442.947 49.75 439.497 49.75H434.772V59.5H439.497ZM486.928 90.025C482.678 90.025 478.853 89.15 475.453 87.4C472.053 85.65 469.378 83.15 467.428 79.9C465.528 76.6 464.578 72.75 464.578 68.35C464.578 63.95 465.528 60.125 467.428 56.875C469.378 53.575 472.053 51.05 475.453 49.3C478.853 47.55 482.678 46.675 486.928 46.675C491.178 46.675 495.003 47.55 498.403 49.3C501.803 51.05 504.453 53.575 506.353 56.875C508.303 60.125 509.278 63.95 509.278 68.35C509.278 72.75 508.303 76.6 506.353 79.9C504.453 83.15 501.803 85.65 498.403 87.4C495.003 89.15 491.178 90.025 486.928 90.025ZM486.928 75.625C488.478 75.625 489.778 75.025 490.828 73.825C491.878 72.575 492.403 70.75 492.403 68.35C492.403 65.95 491.878 64.15 490.828 62.95C489.778 61.7 488.478 61.075 486.928 61.075C485.378 61.075 484.078 61.7 483.028 62.95C481.978 64.15 481.453 65.95 481.453 68.35C481.453 70.75 481.953 72.575 482.953 73.825C484.003 75.025 485.328 75.625 486.928 75.625ZM522.909 43.825C520.009 43.825 517.684 43.05 515.934 41.5C514.184 39.95 513.309 38 513.309 35.65C513.309 33.25 514.184 31.275 515.934 29.725C517.684 28.125 520.009 27.325 522.909 27.325C525.759 27.325 528.059 28.125 529.809 29.725C531.559 31.275 532.434 33.25 532.434 35.65C532.434 38 531.559 39.95 529.809 41.5C528.059 43.05 525.759 43.825 522.909 43.825ZM531.159 47.2V89.5H514.509V47.2H531.159ZM568.304 46.9C573.154 46.9 576.929 48.525 579.629 51.775C582.379 55.025 583.754 59.425 583.754 64.975V89.5H567.179V67.075C567.179 65.075 566.629 63.5 565.529 62.35C564.479 61.15 563.054 60.55 561.254 60.55C559.404 60.55 557.954 61.15 556.904 62.35C555.854 63.5 555.329 65.075 555.329 67.075V89.5H538.679V47.2H555.329V53.65C556.629 51.65 558.354 50.025 560.504 48.775C562.704 47.525 565.304 46.9 568.304 46.9ZM617.299 75.325V89.5H610.999C599.399 89.5 593.599 83.725 593.599 72.175V61.075H588.349V47.2H593.599V37H610.249V47.2H617.149V61.075H610.249V72.475C610.249 73.475 610.474 74.2 610.924 74.65C611.424 75.1 612.224 75.325 613.324 75.325H617.299Z" fill="white"/>
</svg>
